<svg width="90" height="90" viewBox="0 0 90 90" fill="none" xmlns="http://www.w3.org/2000/svg">
<path d="M0.861328 61.7519C0.386719 61.7519 0 61.3652 0 60.8906V43.6465C0 43.418 0.0878906 43.207 0.246094 43.0488L43.0488 0.246094C43.207 0.0878906 43.4355 0 43.6465 0H60.8906C61.3652 0 61.7519 0.386719 61.7519 0.861328C61.7519 1.08984 61.6641 1.30078 61.5059 1.45898L1.45898 61.4883C1.30078 61.6641 1.08984 61.7519 0.861328 61.7519ZM1.70508 43.998V58.834L58.834 1.70508H43.998L1.70508 43.998Z" fill="white"/>
<path d="M44.4551 90H27.2109C26.7363 90 26.3496 89.6133 26.3496 89.1387C26.3496 88.9102 26.4375 88.6992 26.5957 88.541L88.541 26.5957C88.875 26.2617 89.4199 26.2617 89.7539 26.5957C89.9121 26.7539 90 26.9824 90 27.1934V44.4375C90 44.666 89.9121 44.877 89.7539 45.0352L45.0527 89.7539C44.8945 89.9121 44.6836 90 44.4551 90ZM29.2676 88.2949H44.1035L88.2949 44.1035V29.2676L29.2676 88.2949Z" fill="white"/>
<path d="M8.52539 90H8.40234C3.76172 90 0 86.2383 0 81.5801V79.5586C0 79.3301 0.0878906 79.1191 0.246094 78.9609L78.9609 0.246094C79.1191 0.0878906 79.3477 0 79.5586 0H81.5801C86.2383 0 90 3.76172 90 8.41992V8.54297C90 8.77148 89.9121 9 89.7539 9.1582L9.14062 89.7539C8.98242 89.9121 8.75391 90 8.52539 90ZM1.70508 79.9277V81.5977C1.70508 85.2012 4.57031 88.1719 8.17383 88.2949L88.2773 8.17383C88.1543 4.57031 85.2012 1.70508 81.5801 1.70508H79.9102L1.70508 79.9277Z" fill="white"/>
<path d="M81.5801 90H63.123C62.6484 90 62.2617 89.6133 62.2617 89.1387C62.2617 88.9102 62.3496 88.6992 62.5078 88.541L88.5234 62.5254C88.8574 62.1914 89.4023 62.1914 89.7363 62.5254C89.8945 62.6836 89.9824 62.9121 89.9824 63.123V81.5801C90 86.2383 86.2383 90 81.5801 90ZM65.1973 88.2949H81.5801C85.2891 88.2949 88.2773 85.2891 88.2773 81.5977V65.2148L65.1973 88.2949Z" fill="white"/>
<path d="M0.861328 25.8223C0.386719 25.8223 0 25.4355 0 24.9609V8.41992C0 3.76172 3.76172 0 8.41992 0H24.9609C25.4355 0 25.8223 0.386719 25.8223 0.861328C25.8223 1.08984 25.7344 1.30078 25.5762 1.45898L1.45898 25.5762C1.30078 25.7344 1.07227 25.8223 0.861328 25.8223ZM8.41992 1.70508C4.71094 1.70508 1.70508 4.71094 1.70508 8.41992V22.9043L22.9043 1.70508H8.41992Z" fill="white"/>
</svg>
