<svg width="20" height="20" viewBox="0 0 20 20" fill="none" xmlns="http://www.w3.org/2000/svg">
<path d="M13.9333 3.13333L16.9 6.1C17.5667 6.73333 17.5667 7.8 16.9 8.43333L9.16667 16.1333V5.53333L11.5667 3.13333C12.2 2.46667 13.3 2.46667 13.9333 3.13333ZM20 14.1667V18.3333C20 19.2667 19.2667 20 18.3333 20H7.93333L15.4333 12.5H18.3333C19.2667 12.5 20 13.2667 20 14.1667ZM0 16.2667V1.66667C0 0.733333 0.733333 0 1.66667 0H5.83333C6.76667 0 7.5 0.733333 7.5 1.66667V16.2667C7.5 18.3333 5.83333 20 3.76667 20C1.7 20 0 18.3333 0 16.2667ZM3.73333 17.9333C4.66667 17.9333 5.4 17.2 5.4 16.2667C5.4 15.3333 4.66667 14.6 3.73333 14.6C2.8 14.6 2.06667 15.3333 2.06667 16.2667C2.06667 17.2 2.83333 17.9333 3.73333 17.9333Z" fill="white"/>
</svg>
