<svg width="22" height="20" viewBox="0 0 22 20" fill="none" xmlns="http://www.w3.org/2000/svg">
<path d="M16.5556 15.625H16.5667M17 12.25H17.6667C18.7021 12.25 19.2198 12.25 19.6282 12.4212C20.1727 12.6496 20.6053 13.0877 20.8309 13.6389C21 14.0525 21 14.5766 21 15.625C21 16.6734 21 17.1975 20.8309 17.6111C20.6053 18.1623 20.1727 18.6004 19.6282 18.8288C19.2198 19 18.7021 19 17.6667 19H4.33333C3.29791 19 2.7802 19 2.37181 18.8288C1.82731 18.6004 1.3947 18.1623 1.16916 17.6111C1 17.1975 1 16.6734 1 15.625C1 14.5766 1 14.0525 1.16916 13.6389C1.3947 13.0877 1.82731 12.6496 2.37181 12.4212C2.7802 12.25 3.29791 12.25 4.33333 12.25H5M11 13.375V1M11 13.375L7.66667 10M11 13.375L14.3333 10" stroke="black" stroke-width="2" stroke-linecap="round" stroke-linejoin="round"/>
</svg>
