<svg width="80" height="106" viewBox="0 0 80 106" fill="none" xmlns="http://www.w3.org/2000/svg">
<path d="M78.5053 49.7034L67.903 41.7106L78.5053 33.7178C80.4984 32.2178 80.4984 29.444 78.5053 27.944L42.6301 0.862978C41.0685 -0.287659 38.9111 -0.287659 37.3495 0.862978L1.4948 27.9235C-0.498267 29.4234 -0.498267 32.1973 1.4948 33.6972L12.0971 41.69L1.4948 49.6829C-0.498267 51.1828 -0.498267 53.9567 1.4948 55.4566L12.0971 63.4494L1.4948 71.4422C-0.498267 72.9422 -0.498267 75.716 1.4948 77.216L37.3495 104.276C38.9111 105.427 41.0685 105.427 42.6301 104.276L78.4847 77.216C80.4778 75.716 80.4778 72.9422 78.4847 71.4422L67.903 63.4905L78.5053 55.4977C80.4984 53.9977 80.4984 51.2033 78.5053 49.7034ZM2.72763 32.074C2.02902 31.622 1.8441 30.6974 2.29614 29.9988C2.39887 29.8344 2.56325 29.67 2.72763 29.5673L38.6028 2.50674C39.4453 1.91088 40.5754 1.91088 41.4178 2.50674L77.2725 29.5673C77.9711 30.0193 78.156 30.9439 77.7039 31.6425C77.6012 31.8069 77.4368 31.9713 77.2725 32.074L66.1976 40.4367L64.4922 41.7311L51.7735 51.3266L50.0681 52.6211L41.4178 59.1551C40.5754 59.7509 39.4453 59.7509 38.6028 59.1551L29.9525 52.6005L28.2471 51.3061L15.5079 41.7106L13.8025 40.4161L2.72763 32.074ZM77.2519 73.1271C77.9505 73.5791 78.1354 74.5037 77.6834 75.2023C77.5807 75.3667 77.4163 75.5311 77.2519 75.6338L41.3972 102.694C40.5548 103.29 39.4247 103.29 38.5823 102.694L2.72763 75.6338C2.02902 75.1818 1.8441 74.2572 2.29614 73.5586C2.39887 73.3942 2.56325 73.2298 2.72763 73.1271L13.8025 64.785L37.3495 82.5582C38.9111 83.7088 41.0685 83.7088 42.6301 82.5582L66.177 64.785L77.2519 73.1271ZM77.2519 53.8539L66.177 62.196L64.4716 63.4905L41.3972 80.9144C40.5548 81.5103 39.4247 81.5103 38.5823 80.9144L15.5079 63.4905L13.8025 62.196L2.72763 53.8539C2.02902 53.4019 1.8441 52.4773 2.29614 51.7787C2.39887 51.6143 2.56325 51.4499 2.72763 51.3472L13.8025 43.0051L26.5417 52.6005L28.2471 53.895L37.37 60.7783C38.9316 61.9289 41.089 61.9289 42.6506 60.7783L51.7735 53.895L53.4584 52.6005L66.1976 43.0051L77.2519 51.3677C77.9505 51.8198 78.1354 52.7444 77.6834 53.443C77.5807 53.5868 77.4368 53.7306 77.2519 53.8539Z" fill="white"/>
</svg>
