<svg width="22" height="22" viewBox="0 0 22 22" fill="none" xmlns="http://www.w3.org/2000/svg">
<path d="M4.88889 8.77776C7.03666 8.77776 8.77777 7.03665 8.77777 4.88889C8.77777 2.74111 7.03666 1 4.88889 1C2.74111 1 1 2.74111 1 4.88889C1 7.03665 2.74111 8.77776 4.88889 8.77776Z" stroke="black" stroke-width="2" stroke-linecap="round" stroke-linejoin="round"/>
<path d="M17.1111 8.77776C19.2588 8.77776 20.9999 7.03665 20.9999 4.88889C20.9999 2.74111 19.2588 1 17.1111 1C14.9633 1 13.2222 2.74111 13.2222 4.88889C13.2222 7.03665 14.9633 8.77776 17.1111 8.77776Z" stroke="black" stroke-width="2" stroke-linecap="round" stroke-linejoin="round"/>
<path d="M4.88889 20.9999C7.03666 20.9999 8.77777 19.2588 8.77777 17.1111C8.77777 14.9633 7.03666 13.2222 4.88889 13.2222C2.74111 13.2222 1 14.9633 1 17.1111C1 19.2588 2.74111 20.9999 4.88889 20.9999Z" stroke="black" stroke-width="2" stroke-linecap="round" stroke-linejoin="round"/>
<path d="M17.1111 20.9999C19.2588 20.9999 20.9999 19.2588 20.9999 17.1111C20.9999 14.9633 19.2588 13.2222 17.1111 13.2222C14.9633 13.2222 13.2222 14.9633 13.2222 17.1111C13.2222 19.2588 14.9633 20.9999 17.1111 20.9999Z" stroke="black" stroke-width="2" stroke-linecap="round" stroke-linejoin="round"/>
</svg>
