<svg width="89" height="93" viewBox="0 0 89 93" fill="none" xmlns="http://www.w3.org/2000/svg">
<path d="M79.9278 30.2998H71.9642H69.4072H61.4408H60.0284V0H0V62.7002H28.9716V72.505V76.1132V87.3515V90.9596V93H35.491H38.0479H46.0102H48.5672H56.5322H59.0892H67.0514H69.6084H77.572H80.129H89V80.4849V76.8767V65.6412V62.0331V50.7976V47.1895V35.9511V32.343V30.3012H82.4834L79.9278 30.2998ZM60.0284 32.3976H67.9199L60.0284 43.5338V32.3976ZM60.0284 47.1447L70.4783 32.3976H78.4419L70.9403 42.9828L60.0298 58.3788L60.0284 47.1447ZM28.973 60.6024H2.08109V2.09774H57.9473V30.2998V31.3487V31.6256V35.2407V46.4706V50.0802V60.601H50.4901H47.9331H39.9681H37.4111H30.0149L28.973 60.6024ZM38.4794 62.7002H46.4444L31.0541 84.4146V73.1763L38.4794 62.7002ZM31.0541 69.5682V62.7002H35.9224L31.0541 69.5682ZM36.9782 90.9023H31.0527V88.0228L49.0014 62.7002H56.9651L36.9782 90.9023ZM86.9203 90.9023H81.6177L86.9203 83.4203V90.9023ZM86.9203 79.8122L79.0593 90.9023H71.0957L86.9189 68.5767L86.9203 79.8122ZM86.9203 64.9685L68.5401 90.9023H60.5778L82.8414 59.4892L86.9203 53.733V64.9685ZM86.9203 50.1249L82.7512 56.0084L58.0209 90.9023H50.0558L79.5297 49.3166L86.9217 38.8866L86.9203 50.1249ZM86.9203 35.2785L79.3645 45.9392L47.4989 90.9023H39.5366L47.2672 79.9954L61.0107 60.6024L80.9989 32.3976H86.9217L86.9203 35.2785Z" fill="white"/>
</svg>
